<?xml version="1.0" standalone="no"?>
<!DOCTYPE svg PUBLIC "-//W3C//DTD SVG 20010904//EN"
 "http://www.w3.org/TR/2001/REC-SVG-20010904/DTD/svg10.dtd">
<svg version="1.0" xmlns="http://www.w3.org/2000/svg"
 width="16.000000pt" height="16.000000pt" viewBox="0 0 16.000000 16.000000"
 preserveAspectRatio="xMidYMid meet">
<metadata>
Created by potrace 1.11, written by Peter Selinger 2001-2013
</metadata>
<g transform="translate(0.000000,16.000000) scale(0.003125,-0.003125)"
fill="#000000" stroke="none">
<path d="M642 4916 c-4 -7 -7 -1643 -3 -1728 1 -15 44 -17 576 -17 l575 0 0
175 c0 132 -3 174 -12 175 -7 0 -177 1 -378 2 l-365 2 -1 690 c-1 380 -2 695
-3 700 -1 13 -380 14 -389 1z"/>
<path d="M1617 4905 c3 -11 50 -128 104 -260 53 -132 210 -517 348 -855 l250
-615 169 -3 170 -2 10 27 c6 16 102 251 212 523 111 272 239 590 286 705 47
116 89 219 94 230 39 86 107 265 102 268 -4 2 -101 3 -215 3 l-209 -1 -99
-245 c-54 -135 -103 -254 -108 -265 -5 -11 -51 -123 -101 -250 -51 -126 -98
-244 -105 -260 -8 -17 -19 -44 -25 -60 -11 -30 -12 -28 -54 75 -102 250 -341
841 -368 910 -17 41 -34 79 -40 85 -5 6 -92 10 -218 10 -206 0 -210 0 -203
-20z"/>
<path d="M3949 4905 c0 -11 -1 -326 -2 -700 l-2 -680 -365 -2 c-201 -1 -370
-2 -376 -2 -7 -1 -11 -58 -12 -176 l0 -174 573 1 c408 1 575 4 578 12 2 6 3
400 3 876 l-1 865 -198 0 c-191 0 -197 0 -198 -20z"/>
<path d="M641 2970 c-4 -3 -7 -121 -7 -262 l1 -258 30 -1 c16 0 302 0 635 -1
333 0 608 -2 611 -4 4 -2 -25 -68 -64 -146 -38 -79 -98 -201 -132 -273 -34
-71 -102 -211 -150 -310 -48 -99 -113 -234 -145 -300 -32 -66 -95 -196 -140
-290 -45 -93 -113 -233 -150 -310 -37 -77 -116 -239 -174 -359 -58 -121 -104
-221 -102 -223 3 -3 548 -6 652 -4 15 1 28 16 47 54 14 28 141 286 282 572
576 1164 1045 2116 1045 2118 0 5 -2232 2 -2239 -3z"/>
<path d="M3057 2955 c-6 -11 -64 -128 -129 -260 l-119 -240 350 -5 350 -5
-147 -171 c-81 -94 -167 -195 -192 -224 -25 -29 -50 -58 -55 -64 -6 -6 -38
-43 -71 -82 l-61 -71 0 -227 c0 -124 3 -226 7 -226 4 0 35 9 69 20 217 69 454
65 615 -10 69 -33 141 -103 173 -168 53 -108 30 -281 -50 -363 -74 -77 -192
-121 -332 -123 -114 -1 -172 7 -271 40 -129 43 -320 140 -429 219 -19 13 -22
10 -66 -73 -172 -328 -210 -404 -207 -406 27 -24 198 -122 283 -162 308 -146
569 -186 905 -138 242 34 505 187 642 372 38 51 103 176 113 218 35 136 44
204 40 328 -4 147 -5 157 -41 258 -98 272 -306 445 -617 513 -25 5 -26 8 -15
24 11 16 75 89 143 165 11 12 52 58 90 101 39 43 75 83 80 89 6 7 44 50 85 96
41 47 92 103 112 125 l38 40 0 213 c0 116 -3 213 -7 213 -5 1 -293 2 -641 3
-625 1 -634 1 -645 -19z"/>
</g>
</svg>
